<svg width="20" height="20" viewBox="0 0 20 20" fill="none" xmlns="http://www.w3.org/2000/svg">
<g clip-path="url(#clip0_13_1010)">
<path d="M17.5667 5.83333C17.4227 5.58385 17.2165 5.37594 16.9682 5.22989C16.7199 5.08384 16.438 5.00464 16.15 5H5.48333L5 3.11667C4.95117 2.93487 4.84222 2.77495 4.6909 2.66298C4.53958 2.551 4.3548 2.49356 4.16667 2.5H2.5C2.27899 2.5 2.06702 2.5878 1.91074 2.74408C1.75446 2.90036 1.66667 3.11232 1.66667 3.33333C1.66667 3.55435 1.75446 3.76631 1.91074 3.92259C2.06702 4.07887 2.27899 4.16667 2.5 4.16667H3.53333L5.83333 12.7167C5.88217 12.8985 5.99112 13.0584 6.14244 13.1704C6.29376 13.2823 6.47853 13.3398 6.66667 13.3333H14.1667C14.3206 13.3329 14.4713 13.2898 14.6022 13.2089C14.7331 13.128 14.8391 13.0124 14.9083 12.875L17.6417 7.40833C17.7601 7.16001 17.8153 6.88623 17.8022 6.6114C17.7891 6.33658 17.7082 6.06927 17.5667 5.83333ZM13.65 11.6667H7.3L5.94167 6.66667H16.15L13.65 11.6667Z" fill="#262626"/>
<path d="M6.25 17.5C6.94036 17.5 7.5 16.9404 7.5 16.25C7.5 15.5596 6.94036 15 6.25 15C5.55964 15 5 15.5596 5 16.25C5 16.9404 5.55964 17.5 6.25 17.5Z" fill="#262626"/>
<path d="M14.5833 17.5C15.2737 17.5 15.8333 16.9404 15.8333 16.25C15.8333 15.5596 15.2737 15 14.5833 15C13.893 15 13.3333 15.5596 13.3333 16.25C13.3333 16.9404 13.893 17.5 14.5833 17.5Z" fill="#262626"/>
</g>
<defs>
<clipPath id="clip0_13_1010">
<rect width="20" height="20" fill="white"/>
</clipPath>
</defs>
</svg>
