<svg width="81" height="80" viewBox="0 0 81 80" fill="none" xmlns="http://www.w3.org/2000/svg">
<g id="shopping-cart-01">
<path id="Icon" d="M7.1665 6.66675H11.5204C12.3404 6.66675 12.7505 6.66675 13.0804 6.81755C13.3712 6.95044 13.6177 7.16416 13.7903 7.43323C13.9863 7.73856 14.0443 8.14448 14.1602 8.95629L15.7379 20.0001M15.7379 20.0001L19.2442 45.7714C19.6892 49.0418 19.9117 50.677 20.6935 51.9079C21.3824 52.9925 22.3701 53.8549 23.5377 54.3913C24.8627 55.0001 26.513 55.0001 29.8135 55.0001H58.3398C61.4816 55.0001 63.0526 55.0001 64.3364 54.4348C65.4683 53.9364 66.4393 53.1329 67.1408 52.1142C67.9363 50.9588 68.2302 49.4156 68.8181 46.3293L73.2302 23.1657C73.4371 22.0794 73.5406 21.5363 73.3906 21.1117C73.2591 20.7393 72.9996 20.4257 72.6583 20.2268C72.2693 20.0001 71.7164 20.0001 70.6106 20.0001H15.7379ZM33.8332 70.0001C33.8332 71.841 32.3408 73.3334 30.4998 73.3334C28.6589 73.3334 27.1665 71.841 27.1665 70.0001C27.1665 68.1591 28.6589 66.6668 30.4998 66.6668C32.3408 66.6668 33.8332 68.1591 33.8332 70.0001ZM60.4998 70.0001C60.4998 71.841 59.0075 73.3334 57.1665 73.3334C55.3256 73.3334 53.8332 71.841 53.8332 70.0001C53.8332 68.1591 55.3256 66.6668 57.1665 66.6668C59.0075 66.6668 60.4998 68.1591 60.4998 70.0001Z" stroke="white" stroke-width="2" stroke-linecap="round" stroke-linejoin="round"/>
</g>
</svg>
