<svg width="97" height="96" viewBox="0 0 97 96" fill="none" xmlns="http://www.w3.org/2000/svg">
<g id="Layer 2">
<g id="checkmark">
<path id="Vector" d="M39.9399 72C39.3914 71.9982 38.8491 71.8837 38.3468 71.6635C37.8445 71.4433 37.3928 71.1222 37.0199 70.72L17.5799 50.04C16.8532 49.2656 16.4639 48.2342 16.4976 47.1727C16.5314 46.1113 16.9854 45.1067 17.7599 44.38C18.5343 43.6533 19.5657 43.264 20.6271 43.2978C21.6886 43.3315 22.6932 43.7856 23.4199 44.56L39.8999 62.12L73.5399 25.32C73.8812 24.8949 74.3059 24.5441 74.7878 24.2891C75.2697 24.034 75.7987 23.8803 76.3422 23.8371C76.8857 23.794 77.4323 23.8624 77.9484 24.0382C78.4645 24.214 78.9392 24.4934 79.3434 24.8594C79.7476 25.2253 80.0727 25.67 80.2987 26.1662C80.5247 26.6623 80.647 27.1994 80.6579 27.7446C80.6688 28.2897 80.5681 28.8312 80.3621 29.336C80.1561 29.8408 79.8491 30.2982 79.4599 30.68L42.8999 70.68C42.5304 71.0894 42.0803 71.418 41.5778 71.6452C41.0753 71.8723 40.5313 71.9931 39.9799 72H39.9399Z" fill="#81F580"/>
</g>
</g>
</svg>
