<svg width="28" height="28" viewBox="0 0 28 28" fill="none" xmlns="http://www.w3.org/2000/svg">
<g id="Layer 2">
<g id="trash-2">
<path id="Vector" d="M24.5 7.00006H18.6667V5.05173C18.6393 4.30485 18.3169 3.5993 17.7702 3.08974C17.2235 2.58018 16.497 2.30819 15.75 2.3334H12.25C11.5031 2.30819 10.7766 2.58018 10.2299 3.08974C9.68314 3.5993 9.36074 4.30485 9.33337 5.05173V7.00006H3.50004C3.19062 7.00006 2.89388 7.12298 2.67508 7.34177C2.45629 7.56056 2.33337 7.85731 2.33337 8.16673C2.33337 8.47615 2.45629 8.77289 2.67508 8.99169C2.89388 9.21048 3.19062 9.3334 3.50004 9.3334H4.66671V22.1667C4.66671 23.095 5.03546 23.9852 5.69183 24.6416C6.34821 25.298 7.23845 25.6667 8.16671 25.6667H19.8334C20.7616 25.6667 21.6519 25.298 22.3082 24.6416C22.9646 23.9852 23.3334 23.095 23.3334 22.1667V9.3334H24.5C24.8095 9.3334 25.1062 9.21048 25.325 8.99169C25.5438 8.77289 25.6667 8.47615 25.6667 8.16673C25.6667 7.85731 25.5438 7.56056 25.325 7.34177C25.1062 7.12298 24.8095 7.00006 24.5 7.00006ZM11.6667 5.05173C11.6667 4.86506 11.9117 4.66673 12.25 4.66673H15.75C16.0884 4.66673 16.3334 4.86506 16.3334 5.05173V7.00006H11.6667V5.05173ZM21 22.1667C21 22.4761 20.8771 22.7729 20.6583 22.9917C20.4395 23.2105 20.1428 23.3334 19.8334 23.3334H8.16671C7.85729 23.3334 7.56054 23.2105 7.34175 22.9917C7.12296 22.7729 7.00004 22.4761 7.00004 22.1667V9.3334H21V22.1667Z" fill="#3D3D3D"/>
<path id="Vector_2" d="M10.5 19.8333C10.8095 19.8333 11.1062 19.7103 11.325 19.4915C11.5438 19.2728 11.6667 18.976 11.6667 18.6666V13.9999C11.6667 13.6905 11.5438 13.3938 11.325 13.175C11.1062 12.9562 10.8095 12.8333 10.5 12.8333C10.1906 12.8333 9.89388 12.9562 9.67508 13.175C9.45629 13.3938 9.33337 13.6905 9.33337 13.9999V18.6666C9.33337 18.976 9.45629 19.2728 9.67508 19.4915C9.89388 19.7103 10.1906 19.8333 10.5 19.8333Z" fill="#3D3D3D"/>
<path id="Vector_3" d="M17.5 19.8333C17.8095 19.8333 18.1062 19.7103 18.325 19.4915C18.5438 19.2728 18.6667 18.976 18.6667 18.6666V13.9999C18.6667 13.6905 18.5438 13.3938 18.325 13.175C18.1062 12.9562 17.8095 12.8333 17.5 12.8333C17.1906 12.8333 16.8939 12.9562 16.6751 13.175C16.4563 13.3938 16.3334 13.6905 16.3334 13.9999V18.6666C16.3334 18.976 16.4563 19.2728 16.6751 19.4915C16.8939 19.7103 17.1906 19.8333 17.5 19.8333Z" fill="#3D3D3D"/>
</g>
</g>
</svg>
