<svg width="28" height="28" viewBox="0 0 28 28" fill="none" xmlns="http://www.w3.org/2000/svg">
<path d="M15.1662 12.8332L4.08291 23.9166M16.3544 4.1281C17.7754 5.07101 19.1413 6.18264 20.4176 7.45896C21.7049 8.7463 22.8247 10.1247 23.7728 11.5589M10.797 9.21206L7.44302 8.09405C7.05676 7.9653 6.63131 8.04723 6.32049 8.31023L2.98714 11.1308C2.30472 11.7082 2.4986 12.8071 3.33741 13.1161L6.49581 14.2797M13.6275 21.4112L14.7911 24.5696C15.1001 25.4084 16.199 25.6023 16.7764 24.9198L19.597 21.5865C19.86 21.2757 19.9419 20.8502 19.8131 20.464L18.6951 17.1099M22.5729 2.64907L16.8487 3.60311C16.2306 3.70613 15.6637 4.00993 15.2356 4.46754L7.52034 12.7149C5.52049 14.8526 5.57611 18.1912 7.64607 20.2611C9.71603 22.3311 13.0545 22.3867 15.1923 20.3868L23.4396 12.6716C23.8972 12.2435 24.2011 11.6766 24.3041 11.0585L25.2581 5.33426C25.5213 3.75501 24.1522 2.38587 22.5729 2.64907Z" stroke="#5D5D5D" stroke-width="2" stroke-linecap="round" stroke-linejoin="round"/>
</svg>
