<svg width="28" height="28" viewBox="0 0 28 28" fill="none" xmlns="http://www.w3.org/2000/svg">
<path d="M2.33334 2.33333H3.8572C4.14422 2.33333 4.28773 2.33333 4.40322 2.38611C4.505 2.43262 4.59125 2.50742 4.65168 2.6016C4.72027 2.70846 4.74056 2.85053 4.78115 3.13467L5.33334 6.99999M5.33334 6.99999L6.56055 16.02C6.71628 17.1646 6.79415 17.7369 7.06779 18.1677C7.30892 18.5473 7.65461 18.8492 8.06326 19.0369C8.52702 19.25 9.10461 19.25 10.2598 19.25H20.244C21.3436 19.25 21.8935 19.25 22.3428 19.0521C22.739 18.8777 23.0788 18.5965 23.3243 18.2399C23.6028 17.8355 23.7056 17.2954 23.9114 16.2152L25.4556 8.10797C25.5281 7.72777 25.5643 7.53767 25.5118 7.38908C25.4658 7.25873 25.3749 7.14896 25.2555 7.07935C25.1193 6.99999 24.9258 6.99999 24.5388 6.99999H5.33334ZM11.6667 24.5C11.6667 25.1443 11.1443 25.6667 10.5 25.6667C9.85568 25.6667 9.33334 25.1443 9.33334 24.5C9.33334 23.8557 9.85568 23.3333 10.5 23.3333C11.1443 23.3333 11.6667 23.8557 11.6667 24.5ZM21 24.5C21 25.1443 20.4777 25.6667 19.8333 25.6667C19.189 25.6667 18.6667 25.1443 18.6667 24.5C18.6667 23.8557 19.189 23.3333 19.8333 23.3333C20.4777 23.3333 21 23.8557 21 24.5Z" stroke="#262626" stroke-width="2" stroke-linecap="round" stroke-linejoin="round"/>
</svg>
